<?xml version="1.0" encoding="utf-8"?>
<!-- Generator: Adobe Illustrator 25.0.1, SVG Export Plug-In . SVG Version: 6.00 Build 0)  -->
<svg version="1.0" id="katman_1" xmlns="http://www.w3.org/2000/svg" xmlns:xlink="http://www.w3.org/1999/xlink" x="0px" y="0px"
	 viewBox="0 0 560 400" style="enable-background:new 0 0 560 400;" xml:space="preserve">
<style type="text/css">
	.st0{fill:#dadada;}
	.st1{fill:#FF8C00;}
</style>
<g transform="matrix(.859859 0 0 .859859 99.5808 99.3077)">
	<path class="st0" d="M204.7,132.4h8v17.9h5.8l10.4-17.9h8.7l-12.4,21v0.1l13.2,22.9h-9l-10.7-19.2h-5.8v19.2h-8v-44.1L204.7,132.4
		L204.7,132.4z M256.2,144.1c9.6,0,17.5,7,17.5,16.6c0,9.8-7.7,16.6-17.3,16.6c-9.6,0-17.3-6.8-17.3-16.6
		C238.9,150.9,246.6,144.1,256.2,144.1L256.2,144.1z M279.9,144.8h7.5v24.9h9.9v-24.9h7.5v24.9h9.9v-24.9h7.5v31.7h-42.2v-31.7
		L279.9,144.8z M344.7,144.1c9,0,14.1,6.7,14.1,14.9c0,1-0.1,2.1-0.3,3.1h-21.8c0.4,5.5,4.7,8.4,9.5,8.4c3.3,0,6.5-1.5,9-3.4
		l3.1,5.6c-3.3,2.8-8.1,4.6-12.7,4.6c-10.5,0-17-7.5-17-16.6C328.6,150.9,335.2,144.1,344.7,144.1L344.7,144.1z M362.4,169.8
		c3.8-0.6,6.7-3.8,6.7-15.1v-9.9h23.1v31.7h-7.8v-25.3h-7.7v3.6c0,13.8-3.7,21.8-14.2,22V169.8L362.4,169.8z M414.7,144.1
		c9,0,14.1,6.7,14.1,14.9c0,1-0.1,2.1-0.3,3.1h-21.8c0.4,5.5,4.7,8.4,9.5,8.4c3.3,0,6.5-1.5,9-3.4l3.1,5.6
		c-3.3,2.8-8.1,4.6-12.7,4.6c-10.5,0-17-7.5-17-16.6C398.5,150.9,405.2,144.1,414.7,144.1z M435.1,144.8h8V157h3.8l7.7-12.1h8.7
		l-10.1,15.1v0.2l11.2,16.4h-9.2l-8.3-12.9h-4.1v12.9h-7.8V144.8z M256.2,170.4c5.2,0,9.5-4,9.5-9.9c0-5.8-4.3-9.9-9.5-9.9
		c-5.2,0-9.3,4-9.3,9.9C246.9,166.4,251,170.4,256.2,170.4L256.2,170.4z M350.7,156.7c0-4.1-2.8-6.7-6.4-6.7c-4,0-7,2.7-7.7,6.7
		H350.7z M420.7,156.7c0-4.1-2.8-6.7-6.4-6.7c-4,0-7,2.7-7.7,6.7H420.7z"/>
	<path class="st1" d="M315.2,36.4v74.7c0,0,0,0,0,0c0,1.1-0.9,2-2,2c0,0,0,0,0,0h-15.2c0,0,0,0,0,0c-1.1,0-2-0.9-2-2c0,0,0,0,0,0
		V36.4c0,0,0,0,0,0c0-1.1,0.9-2,2-2c0,0,0,0,0,0h15.2c0,0,0,0,0,0C314.3,34.3,315.2,35.2,315.2,36.4
		C315.2,36.4,315.2,36.4,315.2,36.4z M434.2,34.3c0.6,0,1.3,0.3,2.1,0.9c0.4,0.4,0.4,1.2,0.3,1.8l-25.2,74.9
		c-0.3,0.8-1.1,1.3-1.9,1.3h-13.6c-0.9,0-1.6-0.4-1.9-1.3l-14.7-43.6l-14.6,43.6c-0.3,0.8-1.1,1.3-1.9,1.3h-13.6
		c-0.9,0-1.6-0.4-1.9-1.3L322,37c-0.1-0.6-0.1-1.2,0.3-1.8c0.3-0.6,1-0.9,1.6-0.9h17c0.9,0,1.6,0.6,1.9,1.5L356.4,80l14.8-44.2
		c0.3-0.8,1.1-1.3,1.9-1.3h12c0.9,0,1.6,0.4,1.9,1.3L401.8,80l13.5-44.2c0.2-0.9,1-1.5,1.9-1.5L434.2,34.3z M459.9,34.3
		c1,0,1.9,0.9,2.1,2.1v74.7v0c0,1.1-0.9,2-2,2c0,0,0,0,0,0h-15.2c0,0,0,0,0,0c-1.1,0-2-0.9-2-2c0,0,0,0,0,0V36.4c0,0,0,0,0,0
		c0-1.1,0.9-2,2-2c0,0,0,0,0,0L459.9,34.3z M287,110.5c0.9,1,0.1,2.5-1.2,2.5h-18.6c-0.7,0-1.5-0.3-1.9-0.9l-3.1-3.8
		c-6.5,4.1-14.2,6.7-22.3,6.7c-22.8,0-41.3-18.5-41.3-41.3s18.5-41.3,41.3-41.3c22.8,0,41.3,18.5,41.3,41.3c0,8.1-2.4,15.8-6.5,22.3
		L287,110.5L287,110.5z M131.2,146.8c3.8,1.5,5.3,7.2,5.6,9.8c0.6,4.6-0.7,6.4-2.2,6.4s-3.6-1.8-5.8-5.3c-2.2-3.6-3.1-7.5-1.9-9.6
		C127.6,146.6,129.3,146,131.2,146.8L131.2,146.8z M108.7,163.5c2.4,0,5,1,7.4,3.1c4.6,3.8,5.9,8.3,3.6,11.5
		c-1.3,1.6-3.6,2.7-6.1,2.7c-2.5,0-5.2-0.9-7-2.5c-4.1-3.6-5.3-9.5-2.7-12.7C105,164.2,106.6,163.5,108.7,163.5L108.7,163.5z
		 M56.9,206.2c-56.2,0-101.8-45.6-101.8-101.8C-44.9,48.2,0.7,2.7,56.9,2.7c56.2,0,101.8,45.6,101.8,101.8c0,19.1-5.3,37-14.3,52.2
		c-0.3,0.4-1,0.3-1.2-0.3c-3.6-25-18.8-38.8-41-42.9c-1.9-0.3-2.2-1.5,0.3-1.8c6.8-0.6,16.4-0.4,21.5,0.4c0.3-2.5,0.4-5.2,0.4-7.8
		c0-37.1-30.2-67.3-67.3-67.3c-37.1,0-67.3,30.2-67.3,67.3c0,37.1,30.2,67.3,67.3,67.3h3.1c-1.1-6-1.5-12.1-1.3-18.2
		c0.2-4.1,1-4.7,2.8-1.5c9.3,16.1,22.6,30.6,48.7,36.4c21.3,4.7,42.6,10.2,65.5,39.4c2.1,2.5-1,5.2-3.4,3.1
		c-23.4-20.7-44.7-27.5-64.1-27.5C86.7,203.4,71.9,206.2,56.9,206.2L56.9,206.2z M250,93.9l-8.1-9.9c-0.9-1-0.1-2.7,1.2-2.7h17.2
		c0.9-2.4,1.3-5,1.3-7.7c0-12.3-9.2-22.9-21.8-22.9c-12.6,0-21.8,10.7-21.8,22.9s9.2,22.8,21.8,22.8C243.3,96.6,246.9,95.6,250,93.9
		z"/>
</g>
</svg>
